<svg xmlns="http://www.w3.org/2000/svg" width="620" height="800" viewBox="0 0 620 800" font-family="Helvetica,Arial,sans-serif">
  <style>
    text { font-size: 11px; font-weight: 600; text-anchor: middle; }
    text.l { font-size: 12px; font-weight: 400; text-anchor: start; fill: #333; }
    text.h { font-size: 12px; font-weight: 700; text-anchor: start; fill: #111; }
    text.f { font-size: 10px; font-weight: 400; text-anchor: start; fill: #777; }
  </style>
  <rect width="620" height="800" fill="#fff"/>
  <path d="M310.1 599.7L309.0 603.8L310.8 605.9L311.1 609.4L304.8 618.1L300.6 621.1L296.4 622.0L296.6 620.1L298.4 618.8L297.7 617.5L299.4 613.3L296.8 612.5L296.0 614.3L293.7 613.8L292.7 615.4L291.3 611.1L293.0 609.7L292.4 608.2L290.1 605.1L287.7 605.1L286.2 602.5L286.3 600.5L286.0 601.4L284.1 601.8L281.9 600.9L281.7 601.8L279.1 599.8L279.3 597.3L278.2 596.6L276.4 597.2L274.6 601.5L273.8 600.2L268.6 598.3L268.4 597.5L271.0 595.3L275.5 596.0L280.2 590.2L285.8 592.2L289.2 589.6L290.7 590.0L291.6 593.2L292.4 591.2L294.3 590.3L294.7 588.5L293.6 586.8L293.7 583.7L291.3 581.5L294.4 579.5L292.0 575.2L293.0 574.2L293.3 570.2L292.1 567.9L293.5 566.9L294.6 563.2L294.6 556.8L291.2 547.6L291.0 544.0L287.5 536.3L286.9 536.8L286.3 535.7L289.3 531.9L289.6 529.3L292.8 528.3L293.7 528.3L294.1 529.4L295.6 529.3L299.7 526.6L299.2 525.2L303.2 524.2L303.1 520.0L302.3 519.0L302.4 517.9L303.7 517.5L300.3 513.1L301.0 510.1L302.8 511.5L304.3 511.2L305.1 513.9L306.9 512.9L307.8 510.5L309.3 511.1L308.0 513.4L312.0 511.5L308.3 506.6L309.8 501.5L310.2 493.2L305.0 484.8L300.1 483.8L300.8 482.2L300.1 479.8L297.9 479.3L300.2 477.1L300.0 475.4L294.0 471.3L293.8 467.6L295.4 465.1L294.4 463.4L294.7 461.4L293.0 460.5L293.1 457.3L295.8 456.1L294.4 452.8L292.5 452.1L293.7 450.1L293.6 447.7L292.0 447.0L291.7 445.9L292.4 445.5L291.3 444.4L289.7 445.6L290.8 446.4L288.8 449.0L284.4 449.1L283.6 448.5L284.3 444.1L283.6 441.3L281.8 441.8L281.0 444.3L278.7 443.6L280.5 441.9L281.4 438.6L279.2 434.9L280.1 433.7L279.6 432.1L277.6 429.9L274.9 433.3L273.7 430.2L272.1 431.0L272.0 432.8L270.9 433.3L269.5 432.1L270.7 425.2L264.5 427.6L263.4 425.4L261.5 426.9L258.9 426.1L258.1 426.9L254.6 426.9L253.5 429.3L257.2 430.1L255.7 431.0L256.4 432.0L257.6 431.7L257.9 429.9L259.2 431.2L259.6 432.6L258.4 434.6L259.5 435.6L258.8 436.6L253.6 436.3L252.1 437.6L252.8 438.9L251.1 441.3L249.3 442.0L244.0 441.9L242.2 439.9L242.3 438.3L243.9 436.8L243.3 432.9L245.1 431.8L246.3 429.0L244.1 427.7L245.5 425.8L245.3 424.8L243.3 425.2L242.2 422.0L240.8 421.2L240.5 419.3L241.3 419.3L239.9 410.7L240.5 406.0L237.8 404.9L239.8 400.2L244.7 399.0L246.8 401.0L248.0 398.3L249.3 397.4L257.2 398.7L259.0 402.2L264.0 401.5L263.3 390.0L269.4 391.5L271.5 387.7L273.3 387.0L275.4 384.7L274.8 381.1L276.0 375.8L278.2 375.8L281.0 377.8L284.0 376.7L288.8 372.4L289.9 368.5L293.1 364.9L294.9 366.5L295.3 365.8L297.9 365.6L299.8 368.8L304.1 370.3L304.9 372.9L307.1 375.4L307.2 378.1L310.0 377.5L313.0 381.5L315.0 381.2L315.6 382.5L317.3 382.8L316.8 387.7L317.9 391.4L320.3 391.1L323.0 392.9L323.7 389.2L328.4 390.3L329.6 389.1L329.3 387.6L322.9 383.8L322.9 380.5L324.9 380.9L326.4 378.8L333.8 378.2L336.0 381.4L337.2 380.4L338.6 380.7L339.0 382.0L342.4 380.2L344.6 383.1L343.4 384.5L344.0 386.6L346.0 387.8L346.5 386.0L349.3 387.9L349.8 381.2L350.7 380.7L349.0 371.5L352.6 370.6L353.7 368.3L355.2 368.1L357.9 368.9L358.4 369.9L357.4 370.3L357.4 374.3L360.5 375.3L362.3 379.2L364.2 379.0L364.9 377.6L366.0 377.5L367.4 378.7L375.7 376.2L377.2 378.4L380.1 376.4L382.6 375.8L385.0 379.5L384.6 381.4L390.3 382.9L391.9 384.8L392.6 387.3L390.3 389.2L393.5 391.1L395.6 394.2L396.3 395.7L395.4 397.7L395.6 400.3L399.3 402.9L398.6 404.3L400.6 404.4L401.9 406.2L409.8 410.3L410.2 411.1L408.8 412.9L409.2 413.9L412.6 415.1L412.8 416.5L410.2 421.5L409.0 421.9L409.0 425.4L405.5 428.1L407.5 432.0L411.3 433.3L411.4 437.6L411.7 438.7L413.3 438.6L414.7 445.0L417.4 446.2L416.8 449.8L417.6 450.4L417.9 453.0L420.4 453.8L422.9 456.2L424.0 459.8L429.3 460.9L428.8 459.6L429.9 459.6L433.4 460.9L436.2 463.2L436.4 466.2L438.2 467.6L440.2 471.1L443.1 473.4L443.8 476.4L446.4 478.1L448.9 477.7L454.3 483.1L454.5 487.9L459.0 491.5L459.7 491.5L459.6 489.4L462.8 489.6L465.2 491.7L467.6 496.3L470.1 496.4L471.5 497.5L472.3 499.9L474.7 502.8L474.2 504.0L475.6 504.8L473.8 509.4L474.7 510.8L475.2 516.7L474.1 520.2L472.6 521.5L471.7 520.9L470.4 525.0L466.5 522.1L462.8 521.3L460.0 518.9L458.0 521.6L456.8 521.0L456.2 521.9L457.1 525.1L454.7 535.9L447.5 542.1L443.5 542.1L438.9 543.3L435.4 545.2L432.4 548.8L428.4 549.3L426.5 552.9L422.5 556.3L423.1 559.4L427.5 564.0L428.6 567.8L430.8 568.7L434.9 576.6L431.2 582.9L432.1 583.4L430.2 586.6L431.3 587.7L434.1 587.9L435.6 586.7L438.7 589.5L439.6 593.5L437.1 597.5L437.5 599.6L436.3 601.5L437.1 604.7L435.1 606.9L433.7 605.3L433.1 606.1L430.3 604.3L424.7 599.7L424.0 597.9L424.6 596.2L426.2 595.3L422.9 592.2L424.0 590.5L419.9 589.9L415.4 590.5L414.0 593.7L412.1 593.4L410.2 594.3L407.4 590.5L407.4 588.8L403.6 589.7L402.3 588.7L398.3 590.1L397.6 588.9L398.4 585.1L395.8 587.8L393.8 588.4L395.6 593.1L395.7 595.7L385.0 594.8L379.1 596.1L378.2 597.7L374.5 597.1L369.3 597.5L367.7 596.8L365.6 599.6L365.6 602.1L364.8 602.9L361.6 603.7L358.4 602.7L355.7 606.2L356.9 606.7L357.2 608.2L353.3 608.0L350.0 612.1L347.9 612.3L349.2 609.7L347.0 609.2L343.1 611.0L342.5 612.2L335.4 611.9L336.0 609.5L334.8 607.8L332.2 605.3L330.5 605.5L330.5 604.1L332.2 602.7L331.2 601.2L326.8 602.4L318.1 598.9L316.3 599.7L316.0 601.4L311.8 600.9L310.1 599.7Z" fill="#ffcc80" stroke="#e65100" stroke-width="1.1" stroke-linejoin="round"><title>Bayern - partial: point cloud, terrain, houses (missing: plots)</title></path>
  <path d="M186.9 113.1L188.1 113.9L184.3 113.3L183.3 114.2L182.3 113.2L184.1 112.6L186.9 113.1ZM140.7 122.2L134.3 122.5L143.7 121.0L145.8 121.4L140.7 122.2ZM179.9 114.6L175.1 115.1L174.4 115.9L173.6 115.4L175.1 113.7L180.2 113.7L180.9 114.1L179.9 114.6ZM171.9 116.2L166.0 116.7L165.0 118.1L163.7 118.1L163.8 116.7L165.0 115.6L169.9 115.4L171.9 116.2ZM152.4 118.2L157.2 117.9L158.0 118.5L148.5 120.2L148.0 119.1L152.4 118.2ZM131.5 128.0L129.0 128.1L126.1 130.4L124.4 129.4L124.1 128.2L129.1 126.2L131.5 128.0ZM223.7 105.9L228.3 109.5L233.7 109.9L240.0 109.4L238.6 106.5L240.8 105.9L249.1 105.9L253.1 107.2L256.8 111.3L260.1 117.4L263.8 120.6L265.9 126.5L271.9 130.5L276.8 131.3L276.3 134.9L281.1 141.1L283.1 139.0L283.8 141.5L286.6 142.4L290.1 139.9L290.5 138.3L296.5 143.7L299.5 143.7L300.6 142.0L303.0 140.8L306.4 141.6L312.4 145.4L316.2 146.6L322.4 145.7L325.9 149.4L328.7 150.8L332.8 147.5L336.2 148.6L340.9 157.4L343.6 159.6L346.3 160.4L345.2 162.4L345.6 163.0L349.0 164.1L350.2 167.0L353.3 170.2L358.9 168.5L361.7 170.9L366.1 171.8L364.4 173.6L361.9 174.1L360.9 177.8L361.6 179.2L359.8 179.4L352.4 184.1L351.3 184.4L346.6 182.4L341.9 182.7L341.7 181.4L337.0 181.5L333.9 186.1L325.4 186.9L324.8 191.5L326.9 197.0L328.4 196.8L333.0 205.1L335.7 204.0L333.7 208.4L337.3 213.9L334.2 214.8L333.6 216.7L340.5 223.5L339.5 225.4L336.0 226.0L338.6 228.5L337.4 230.3L341.0 234.8L337.5 237.2L337.8 238.9L339.8 239.3L338.6 242.2L334.0 244.6L335.4 246.0L335.1 248.2L320.3 249.2L319.0 251.6L315.4 252.4L318.4 256.0L319.8 256.0L317.9 257.5L317.9 258.8L319.5 259.8L319.7 261.3L316.2 264.5L316.1 267.2L316.3 269.7L318.8 273.0L322.2 280.7L319.1 282.5L319.1 285.2L320.5 285.8L319.8 287.0L317.2 285.9L315.4 287.3L313.3 287.6L309.7 284.8L306.8 285.0L304.7 290.2L299.5 293.5L298.0 292.8L297.2 293.2L295.3 297.2L290.0 297.4L284.4 301.5L283.3 297.9L280.6 298.4L281.3 301.8L280.1 300.9L280.0 299.4L277.8 299.0L273.4 302.3L275.0 305.1L276.7 304.4L276.5 306.8L274.7 307.7L266.7 304.3L266.0 303.0L267.3 299.5L270.3 298.3L269.2 293.3L267.6 290.2L268.8 290.0L269.6 288.0L270.6 287.7L269.8 285.2L271.8 286.4L272.5 285.3L270.1 283.2L269.5 281.0L267.5 282.0L264.2 281.9L263.1 281.3L263.3 279.7L257.3 280.0L258.6 276.0L257.3 272.7L260.8 268.8L260.7 264.7L256.8 263.3L254.8 264.0L255.5 263.4L255.6 259.9L252.3 258.0L251.9 254.6L249.5 254.8L249.0 255.9L247.5 254.2L248.6 251.9L247.3 249.0L248.2 247.1L246.1 244.9L246.5 242.7L239.8 241.1L239.7 239.3L238.2 237.5L241.0 238.3L241.1 236.4L242.6 234.6L237.6 232.1L237.1 231.0L238.3 230.3L238.8 227.2L240.3 225.7L241.9 226.1L243.7 223.7L245.0 220.2L243.5 218.1L245.5 215.6L245.2 214.9L241.6 213.6L235.9 221.3L231.9 222.3L224.6 221.8L224.4 213.6L221.8 211.3L217.2 213.6L214.9 212.5L212.5 214.1L212.2 216.7L211.0 217.8L207.6 218.1L204.5 217.1L205.7 219.5L205.3 221.0L211.7 224.5L212.8 233.5L211.6 236.0L211.9 237.1L214.7 238.7L210.0 242.1L209.4 244.2L203.1 242.4L198.4 247.1L194.7 248.2L191.5 247.4L188.7 249.8L185.9 248.7L184.3 246.1L190.4 243.7L190.8 239.3L186.7 238.8L185.5 237.9L185.3 236.4L187.8 231.5L186.7 229.2L188.9 228.3L187.0 224.3L184.6 222.9L180.6 223.7L176.0 221.5L174.4 217.0L170.6 215.6L169.3 217.9L169.0 219.1L169.8 219.6L168.5 223.9L165.7 224.5L155.5 232.1L148.7 231.9L146.9 232.3L145.8 233.7L144.1 233.9L142.3 230.1L144.5 223.6L140.6 216.3L138.1 218.7L133.8 216.8L129.0 216.5L126.2 214.7L126.5 212.1L125.4 209.6L129.5 208.8L127.2 206.7L127.5 203.3L128.4 202.3L134.7 201.7L143.0 203.3L143.6 202.4L145.3 186.3L149.9 179.2L151.2 174.6L150.9 165.8L149.8 163.9L150.9 161.1L152.3 160.8L151.2 155.6L153.1 149.1L154.1 149.1L142.3 148.4L140.9 146.5L142.3 137.4L143.3 135.0L142.5 133.0L145.8 133.9L147.7 132.9L147.9 132.3L145.2 130.0L148.8 125.5L152.8 122.4L156.8 121.2L164.5 121.3L166.7 122.2L175.5 119.7L185.6 118.5L190.5 119.0L191.5 119.5L191.2 121.2L192.1 124.5L194.1 124.3L198.2 132.1L197.7 133.2L198.4 132.8L197.4 134.5L194.5 135.6L192.9 135.2L193.3 138.0L194.8 139.9L197.3 139.5L200.0 143.3L202.2 143.6L204.5 140.9L205.4 138.4L205.2 133.9L201.2 134.0L201.7 129.4L203.8 127.0L206.3 126.8L209.3 130.1L216.9 132.6L217.0 134.4L214.9 135.8L214.0 137.6L217.8 136.4L219.8 136.7L221.8 134.7L220.1 129.7L221.8 127.6L219.0 128.3L215.3 127.4L213.6 123.5L213.5 120.5L217.6 108.6L219.9 105.8L223.3 104.8L223.7 105.9Z" fill="#a5d6a7" stroke="#2e7d32" stroke-width="1.1" stroke-linejoin="round"><title>Niedersachsen - full: point cloud, terrain, plots, houses. Priced route: LGLN sells the classified ALS Laserscan-Punktwolke (3D-Messdaten) under the KOVerm fee schedule: 1 km2 LAZ 1.2 tiles, &gt;=4 pts/m2, quote on request, delivered by download or on a posted data carrier. Not CC BY like the DGM1 -- it comes under the LGLN AGNB. Ask geoService-3D@lgln.niedersachsen.de.</title></path>
  <path d="M222.6 212.0L224.4 213.6L224.6 221.8L226.5 222.5L228.5 221.6L231.9 222.3L235.9 221.3L241.6 213.6L245.4 215.1L243.5 218.1L245.0 220.2L243.7 223.7L241.9 226.1L240.3 225.7L238.8 227.2L238.3 230.3L237.1 231.0L237.6 232.1L242.6 234.6L241.1 236.4L241.0 238.3L238.2 237.5L239.7 239.3L239.8 241.1L246.5 242.7L246.1 244.9L248.2 247.1L247.3 249.0L248.6 251.9L247.5 254.2L249.0 255.9L249.5 254.8L251.9 254.6L252.3 258.0L255.6 259.9L255.5 263.4L254.8 264.0L256.8 263.3L260.7 264.7L260.8 268.8L257.3 272.7L258.6 276.0L257.3 280.0L260.7 280.4L259.7 281.6L255.4 282.8L256.9 284.7L254.2 289.4L249.9 292.6L249.4 294.9L248.0 294.4L246.6 296.2L243.3 296.0L242.7 294.3L243.5 292.1L240.8 291.6L239.8 290.4L233.6 293.2L236.4 297.2L235.9 300.4L233.5 300.1L231.8 301.3L229.3 300.3L224.6 301.5L220.3 304.5L217.2 309.1L219.8 311.5L223.9 309.1L225.3 309.4L227.1 316.9L223.9 320.2L225.1 322.1L222.6 323.1L217.1 322.8L214.9 324.2L216.3 329.3L212.5 333.5L212.0 336.0L208.8 340.5L207.6 341.6L205.0 341.6L204.2 340.1L203.3 340.0L196.2 347.3L198.1 351.5L196.1 355.3L194.8 353.9L191.9 354.4L191.9 352.1L188.4 348.4L188.3 342.8L185.9 342.9L184.3 340.6L181.6 339.9L182.6 336.7L179.5 335.4L177.7 337.1L177.5 342.8L173.4 344.8L174.4 347.2L173.4 348.8L170.4 349.1L169.6 351.3L167.9 350.6L162.4 353.4L159.3 352.8L158.6 358.1L156.9 358.9L151.4 360.1L151.4 358.2L148.2 362.0L146.5 361.6L145.1 363.1L143.7 361.5L139.7 365.5L137.4 365.2L135.3 367.8L136.4 369.7L136.1 372.3L134.1 373.5L131.8 372.1L131.2 370.5L128.5 372.0L130.4 376.0L129.7 378.2L131.3 380.6L126.1 381.8L124.7 379.8L123.2 382.0L121.6 378.6L117.9 380.0L115.7 382.5L114.2 382.7L114.6 380.7L112.2 378.5L110.9 378.9L112.9 383.7L111.8 383.6L111.5 382.1L108.7 379.3L110.1 376.8L110.2 373.3L108.7 372.8L108.7 371.1L107.1 369.8L102.9 369.7L100.8 366.6L100.6 365.3L103.9 363.0L105.3 360.1L101.3 359.9L97.8 352.7L93.9 352.8L94.0 350.7L90.8 346.6L91.3 345.6L92.3 346.3L93.2 345.3L93.1 342.9L94.8 342.0L95.7 342.7L96.4 340.4L95.7 339.0L96.7 336.9L92.9 335.9L93.3 332.1L88.0 332.5L85.5 326.8L87.8 325.6L88.9 327.9L89.7 327.9L92.5 323.7L96.8 320.2L100.6 318.4L98.9 317.3L100.8 316.3L100.1 315.6L96.0 317.4L95.5 311.9L98.1 309.4L100.3 304.8L103.1 302.6L102.1 299.5L103.0 294.1L102.4 290.7L96.5 283.5L97.8 279.6L93.6 278.0L93.3 275.5L94.3 274.9L93.6 274.3L89.8 273.1L89.7 272.3L91.6 270.7L89.4 266.4L90.2 265.5L92.6 265.6L95.1 263.2L97.1 264.6L100.2 265.1L100.1 263.6L97.8 261.2L99.6 260.2L102.4 262.8L105.6 262.5L112.0 266.1L111.1 262.5L115.1 264.1L125.0 259.3L127.9 260.6L132.8 254.8L132.5 253.2L128.9 250.5L125.7 249.6L126.1 247.2L128.7 246.2L129.2 243.4L133.9 243.3L136.4 239.0L138.6 238.6L140.4 235.0L142.9 234.9L148.7 231.9L155.5 232.1L165.7 224.5L168.5 223.9L169.8 219.6L169.0 219.1L169.3 217.9L170.6 215.6L174.6 217.2L176.0 221.5L180.6 223.7L184.6 222.9L187.0 224.3L188.9 228.3L186.7 229.2L187.8 231.5L185.3 236.4L185.5 237.9L187.0 239.0L190.3 239.0L191.2 240.0L190.1 241.4L190.4 243.7L184.3 246.0L185.9 248.7L189.2 249.7L191.5 247.4L194.7 248.2L198.4 247.1L203.9 242.3L204.6 243.3L205.8 242.9L209.4 244.2L210.0 242.1L214.7 238.7L211.9 237.1L211.6 236.0L212.8 233.5L211.7 224.5L205.3 221.0L205.7 219.5L204.5 217.1L207.6 218.1L211.0 217.8L212.2 216.7L212.5 214.1L214.9 212.5L217.2 213.6L221.8 211.3L222.6 212.0Z" fill="#a5d6a7" stroke="#2e7d32" stroke-width="1.1" stroke-linejoin="round"><title>Nordrhein-Westfalen - full: point cloud, terrain, plots, houses</title></path>
  <path d="M270.6 426.2L269.5 432.1L270.9 433.3L272.0 432.8L272.1 431.0L273.7 430.2L274.5 433.3L277.6 429.9L279.6 432.1L280.1 433.7L279.2 434.9L279.8 436.4L280.7 436.7L281.4 439.5L280.5 441.9L278.5 443.5L281.0 444.3L281.8 441.8L283.6 441.3L284.3 444.1L283.6 448.5L284.4 449.1L288.8 449.0L290.8 446.4L289.7 445.6L292.0 444.5L292.4 445.5L291.6 446.3L293.6 447.7L293.7 450.1L292.5 452.1L294.4 452.8L295.8 456.1L293.1 457.3L293.0 460.5L294.7 461.4L294.4 463.4L295.4 465.1L293.8 467.6L294.0 471.3L300.0 475.4L300.2 477.1L297.9 479.3L300.1 479.8L300.8 482.2L300.1 483.8L305.0 484.8L310.2 493.2L309.8 501.5L308.3 506.6L312.0 511.5L308.0 513.4L309.3 511.1L307.8 510.5L306.9 512.9L305.1 513.9L304.3 511.2L302.8 511.5L301.0 510.1L300.3 513.1L303.7 517.5L302.4 517.9L302.3 519.0L303.1 520.0L303.2 524.2L299.2 525.2L299.7 526.6L295.6 529.3L294.1 529.4L293.7 528.3L292.8 528.3L289.6 529.3L289.3 531.9L286.3 535.7L286.9 536.8L287.5 536.3L291.0 544.0L291.2 547.6L294.6 556.8L294.6 563.2L293.5 566.9L292.1 567.9L293.3 570.2L293.0 574.2L292.0 575.2L294.4 579.5L291.3 581.5L293.7 583.7L293.6 586.8L294.7 588.5L294.3 590.3L292.4 591.2L291.6 593.2L290.7 590.0L289.2 589.6L285.8 592.2L280.2 590.2L275.5 596.0L271.1 595.3L268.4 597.5L266.4 597.5L265.1 596.5L263.1 592.4L258.6 590.9L256.1 591.5L254.1 590.5L250.8 587.9L249.9 585.4L245.8 583.2L241.9 579.6L240.8 579.4L240.5 580.3L247.4 585.8L249.5 591.0L247.8 591.0L247.6 592.0L243.8 590.2L239.9 589.5L234.0 592.5L231.6 589.9L231.6 588.7L232.7 588.9L232.7 588.2L230.7 587.3L229.5 585.5L227.7 587.0L227.6 587.9L229.6 589.0L228.4 590.3L226.0 589.0L224.8 586.2L226.3 584.7L225.6 583.6L224.4 583.7L222.1 580.7L221.9 582.8L220.8 583.9L220.0 580.6L217.8 580.0L217.1 581.9L213.2 583.7L209.8 590.4L213.0 593.2L215.8 592.8L215.7 591.6L216.9 591.0L219.6 590.9L220.7 592.5L220.1 593.3L219.7 592.2L219.1 592.9L219.6 595.2L218.5 596.6L217.4 596.2L218.0 595.4L217.3 594.4L215.5 593.6L212.3 596.1L212.8 597.5L213.9 597.2L213.9 597.9L208.3 598.8L205.8 598.3L204.1 595.4L200.6 594.8L195.3 597.6L194.3 599.5L187.9 599.6L187.2 600.6L185.6 600.0L184.6 597.3L181.2 597.2L179.7 599.7L173.7 601.2L172.0 599.3L174.6 598.9L174.3 597.7L172.5 596.6L170.8 598.0L168.7 593.8L166.5 591.4L166.0 588.7L167.7 586.1L166.9 582.1L168.5 577.4L168.2 574.5L171.4 567.1L168.8 562.3L169.4 555.3L173.7 547.7L174.9 541.5L177.4 539.6L176.9 534.1L178.6 526.8L180.3 525.2L180.2 519.3L182.1 515.0L184.4 513.5L187.7 509.1L188.6 505.8L190.6 505.7L191.4 503.6L194.2 502.5L199.5 490.4L204.0 487.3L205.3 482.7L207.5 479.4L208.0 473.9L209.8 469.8L208.8 469.7L209.1 468.7L213.8 464.3L212.1 461.6L214.3 458.8L214.8 453.1L211.6 451.8L212.7 450.2L210.3 443.9L210.7 441.4L212.7 441.0L216.4 445.7L218.4 446.4L220.3 444.6L219.0 439.3L223.9 438.3L223.4 442.2L224.3 445.2L231.2 448.0L233.9 447.7L234.0 449.1L232.9 450.5L232.2 450.6L231.7 449.2L230.4 450.2L230.9 453.1L229.4 454.2L229.3 455.4L231.7 456.1L236.5 451.5L235.5 450.3L236.9 447.6L238.2 447.1L240.6 448.1L242.3 445.8L243.8 445.9L244.1 447.2L245.1 446.6L243.5 444.7L244.0 441.9L250.7 441.6L252.8 438.9L252.1 437.6L253.6 436.3L257.7 436.7L259.3 436.0L258.4 434.6L259.6 432.6L259.2 431.2L257.9 429.9L257.6 431.7L256.4 432.0L255.7 431.0L257.2 430.1L253.4 429.1L254.5 427.0L258.1 426.9L258.9 426.1L261.5 426.9L263.4 425.4L264.5 427.6L270.7 425.2L270.6 426.2Z" fill="#a5d6a7" stroke="#2e7d32" stroke-width="1.1" stroke-linejoin="round"><title>Baden-Württemberg - full: point cloud, terrain, plots, houses. Priced route: LGL's ALS_2 covers all of Baden-Wuerttemberg from the 2016-2021 campaign at &gt;=8 pts/m2, in LAZ, LAS or XYZ-ASCII, and is licensed Open Data -- but it ships on an email order with an effort-based Service-Entgelt, minimum 60 EUR plus VAT. ALS_3 (the 2022-2029 recapture) is the same arrangement and still in progress; ALS_1 (2000-2005, 0.8 pts/m2) is historic and no longer maintained. Ask geodaten@lgl.bwl.de.</title></path>
  <path d="M477.5 137.5L479.6 139.0L479.3 140.5L486.0 141.1L486.3 142.4L488.9 141.6L489.7 140.1L492.6 141.7L495.3 141.2L495.6 144.1L494.8 146.4L488.9 152.7L488.5 154.2L496.7 154.3L496.6 153.0L503.4 148.9L504.1 149.3L504.3 153.1L505.7 154.1L502.2 159.0L501.7 161.3L502.7 163.6L500.7 170.3L496.4 174.4L490.8 177.8L491.6 183.6L489.8 187.3L490.6 188.3L494.4 188.9L497.4 192.2L501.0 194.1L506.6 201.1L512.8 205.0L514.9 208.0L513.3 211.2L514.8 214.3L512.1 218.2L510.6 218.8L509.9 221.9L512.7 231.2L517.5 232.7L518.7 234.3L517.1 243.7L520.9 247.6L520.3 250.2L518.7 252.3L518.6 257.6L517.7 260.4L513.6 263.9L512.6 266.6L513.4 268.0L515.3 268.6L516.4 274.1L519.7 277.0L521.2 283.3L519.4 285.4L518.2 285.5L516.8 287.7L513.6 287.8L513.0 286.1L511.7 285.5L510.3 287.0L506.0 287.3L505.6 288.4L502.7 288.4L499.5 290.6L497.0 289.2L490.4 288.3L483.7 301.1L481.0 300.2L478.1 301.5L475.6 300.7L474.9 301.9L472.8 302.6L468.5 301.6L463.9 301.9L463.6 300.8L462.6 300.7L461.3 301.9L460.2 299.4L454.9 296.1L450.8 297.0L448.7 298.7L448.8 299.6L445.5 299.9L444.0 297.7L444.9 289.9L441.8 286.2L442.4 283.9L440.4 282.7L438.9 283.1L437.2 280.2L442.2 277.2L443.9 274.8L442.0 271.5L443.1 269.4L440.8 264.2L442.3 263.6L442.1 262.8L440.6 261.9L438.8 263.0L436.7 262.8L436.1 262.0L437.0 260.5L434.1 260.3L432.7 257.7L430.7 257.5L429.3 258.4L427.5 257.8L427.1 255.2L423.8 255.4L423.5 254.4L418.5 251.7L415.3 254.1L412.3 253.9L412.0 252.5L410.0 251.8L409.3 250.1L406.8 251.3L403.3 249.0L401.2 245.5L399.3 244.6L396.4 239.4L397.9 236.3L400.3 234.8L397.7 233.4L398.7 229.5L400.9 225.7L399.7 224.1L400.6 223.0L400.0 219.7L401.3 217.3L401.2 214.4L399.1 214.6L398.4 212.2L397.2 211.8L396.6 213.6L395.0 213.9L392.8 211.3L394.4 207.6L394.1 203.7L395.7 204.3L397.4 202.7L397.2 198.8L395.7 196.2L396.2 192.3L398.4 189.8L397.1 186.1L395.5 184.5L392.0 186.1L391.7 182.9L391.2 184.3L386.8 183.2L384.7 184.2L377.6 181.6L377.0 180.7L378.0 178.3L375.3 177.7L373.3 175.5L370.7 176.3L370.0 174.0L367.4 173.6L368.0 171.5L365.6 171.9L361.7 170.9L358.9 168.5L353.5 170.3L350.2 167.0L350.0 165.2L354.7 165.6L356.2 163.7L363.0 164.8L364.6 161.6L364.1 158.8L367.3 155.9L376.9 157.0L377.7 156.5L375.7 154.8L378.9 155.2L380.5 153.3L383.1 153.1L386.6 151.3L386.5 148.5L388.6 147.3L388.2 145.7L388.8 145.6L389.6 145.9L389.8 147.6L391.1 147.8L397.0 146.7L398.5 149.3L400.9 149.1L404.4 150.9L407.5 155.0L411.8 153.9L415.1 155.3L418.2 154.7L418.5 156.5L422.9 157.1L421.9 159.0L423.2 159.9L427.3 158.9L429.4 160.6L430.1 159.5L433.1 159.0L433.8 159.7L432.0 161.0L433.7 161.9L440.0 157.8L439.8 156.3L442.0 155.1L443.8 155.2L444.8 157.5L446.0 157.7L446.9 154.6L449.5 152.7L452.5 152.9L454.6 155.3L456.0 152.1L458.5 151.9L460.4 149.7L460.1 147.2L461.9 144.9L461.7 143.4L464.7 142.3L466.1 139.7L469.7 137.0L472.9 137.6L474.5 136.8L475.2 135.8L472.8 134.5L473.5 131.1L475.1 134.0L477.7 135.3L477.5 137.5Z" fill="#a5d6a7" stroke="#2e7d32" stroke-width="1.1" stroke-linejoin="round"><title>Brandenburg - full: point cloud, terrain, plots, houses</title></path>
  <path d="M444.6 58.6L445.4 58.7L445.0 60.1L440.8 62.0L442.5 58.5L444.6 58.6ZM442.0 49.9L442.4 51.8L441.6 50.3L440.2 51.0L440.4 54.6L438.8 56.3L438.0 60.8L439.6 50.5L441.0 49.3L442.0 49.9ZM360.8 96.6L359.1 99.9L358.5 99.4L358.7 96.8L357.9 99.5L355.9 99.2L355.3 98.2L355.9 96.3L360.0 94.6L361.1 95.0L360.8 96.6ZM476.3 87.4L478.9 89.7L484.5 92.4L494.8 102.1L493.8 103.5L494.2 107.0L485.6 106.4L481.2 108.7L479.9 108.6L481.5 107.8L480.3 106.7L478.8 109.0L475.2 108.2L475.6 106.6L478.7 106.0L480.7 103.6L479.9 100.6L478.6 99.3L479.2 97.4L482.0 97.4L481.5 101.6L482.7 99.7L484.9 99.5L484.3 100.5L485.9 100.8L485.8 95.7L482.4 92.0L479.5 91.7L480.1 95.2L476.9 96.6L476.5 95.5L477.8 93.4L476.6 92.8L473.8 95.1L472.4 95.0L474.5 88.9L471.7 85.8L471.7 83.7L474.4 83.3L476.3 87.4ZM453.5 46.2L453.5 48.9L455.7 51.7L465.8 50.9L467.9 52.5L467.5 55.9L464.5 57.7L462.7 60.4L464.5 64.7L467.6 65.2L470.8 69.2L469.5 75.5L468.2 74.5L469.4 74.7L469.1 73.5L467.1 74.1L466.3 73.4L469.2 71.4L468.2 69.1L459.5 69.9L457.5 71.1L452.0 75.5L452.3 77.3L452.6 75.9L454.5 75.9L455.2 76.7L455.5 78.0L453.8 78.9L449.4 76.9L450.6 77.3L451.1 74.8L448.0 76.8L445.1 75.4L444.6 74.1L442.3 74.3L441.7 73.4L440.4 70.5L441.0 67.6L446.2 67.7L447.5 66.6L444.6 63.3L442.4 63.7L442.1 63.0L443.0 61.2L448.0 59.0L445.9 57.4L443.1 57.0L442.1 54.2L446.6 53.2L448.7 54.2L449.7 56.4L449.3 53.5L452.5 51.3L451.6 55.9L453.7 55.1L453.7 54.4L452.1 53.8L453.1 52.9L455.0 55.9L454.9 58.0L458.4 59.7L457.8 61.2L459.8 61.9L459.4 62.6L458.4 62.5L459.0 61.7L458.4 62.0L458.1 63.4L460.9 64.0L461.9 62.4L461.5 59.5L459.8 59.2L459.7 53.0L456.5 53.5L453.5 50.6L452.9 48.7L450.3 51.3L446.7 53.0L448.5 48.5L448.6 46.2L445.9 47.8L446.3 50.2L442.6 52.9L445.6 49.5L445.8 46.2L448.2 44.3L455.6 43.1L455.7 45.0L453.5 46.2ZM418.5 62.0L431.2 61.7L431.1 63.3L422.9 64.2L419.8 62.8L414.5 64.7L413.6 66.1L407.1 67.0L406.1 68.0L406.1 70.3L403.3 73.0L403.6 75.8L405.4 77.0L408.2 77.2L406.2 76.4L405.9 74.7L408.7 72.9L409.0 70.8L411.9 70.2L413.1 67.3L415.1 67.8L418.6 66.0L418.5 64.8L420.4 64.4L420.7 65.0L419.4 65.4L418.9 67.6L419.5 67.9L420.1 65.4L421.7 67.6L423.4 67.5L424.3 65.6L425.5 68.7L427.1 69.1L428.9 67.8L429.7 65.2L435.7 62.3L436.4 62.9L436.0 65.5L439.3 67.7L438.5 69.5L439.9 74.5L442.1 75.6L441.8 76.7L443.9 75.8L445.3 77.1L448.9 78.2L451.0 82.3L450.9 83.5L453.3 82.7L454.7 83.4L457.2 89.5L459.3 89.9L458.1 87.4L458.9 86.7L465.3 85.6L468.8 83.1L469.6 83.3L470.5 85.7L474.0 88.9L473.2 92.5L471.2 94.3L479.5 102.6L475.0 106.5L474.7 108.8L476.5 108.9L478.8 111.9L482.3 114.3L488.7 116.8L492.7 117.1L495.1 115.1L496.8 116.1L496.7 117.5L494.2 119.7L496.8 120.1L497.6 121.3L497.6 125.0L499.2 126.4L498.6 131.4L499.7 135.3L500.9 135.9L503.9 149.0L499.0 151.1L498.5 152.3L496.6 153.0L496.7 154.3L488.5 154.2L488.9 152.7L494.8 146.4L495.6 144.1L495.3 141.2L492.6 141.7L489.7 140.1L488.9 141.6L486.3 142.4L486.0 141.1L479.3 140.5L479.6 139.0L477.5 137.5L477.7 135.3L475.1 134.0L473.5 131.1L472.8 134.5L475.2 135.8L474.5 136.8L472.9 137.6L469.7 137.0L466.1 139.7L464.7 142.3L461.7 143.4L461.9 144.9L460.1 147.2L460.4 149.7L458.5 151.9L456.0 152.1L454.6 155.3L452.5 152.9L449.5 152.7L446.9 154.6L446.0 157.7L444.8 157.5L443.8 155.2L442.0 155.1L439.8 156.3L440.0 157.8L433.7 161.9L432.0 161.0L433.8 159.7L433.1 159.0L430.1 159.5L429.4 160.6L427.3 158.9L423.2 159.9L421.9 159.0L422.9 157.1L418.5 156.5L418.2 154.7L415.1 155.3L411.8 153.9L407.5 155.0L404.4 150.9L400.9 149.1L398.5 149.3L397.0 146.7L391.1 147.8L389.8 147.6L389.6 145.9L388.8 145.6L388.2 145.7L388.6 147.3L386.5 148.5L386.6 151.3L383.1 153.1L380.5 153.3L378.9 155.2L375.7 154.8L377.4 156.8L374.0 157.0L370.5 155.7L367.4 155.8L364.1 158.8L364.6 161.6L363.7 164.4L361.8 164.8L359.4 163.7L356.2 163.7L354.7 165.6L350.0 165.2L348.4 163.7L345.6 163.0L345.2 162.4L346.3 160.4L340.9 157.5L336.2 148.6L332.8 147.5L328.7 150.8L325.9 149.4L322.4 145.7L317.1 146.4L318.1 144.4L318.8 139.2L321.8 139.1L327.5 134.4L328.6 132.3L328.2 129.7L330.2 130.5L332.4 130.1L333.3 129.1L333.4 125.5L334.5 124.0L334.1 121.2L333.1 120.0L328.3 119.1L325.6 116.1L325.8 112.5L324.5 109.4L325.7 106.5L327.1 106.2L330.3 103.3L332.5 104.5L335.2 103.8L332.5 102.5L332.1 99.9L338.6 96.1L345.7 95.4L348.9 98.8L349.4 101.5L350.9 101.9L354.0 100.9L358.7 103.4L360.4 101.2L360.9 97.1L362.3 94.5L364.7 94.0L367.4 90.3L366.6 88.5L363.4 92.2L362.9 90.5L367.1 87.8L370.0 84.7L373.8 84.4L378.2 85.2L385.7 82.8L391.2 82.6L395.0 77.9L402.2 73.4L411.0 58.8L412.9 61.0L418.5 62.0Z" fill="#a5d6a7" stroke="#2e7d32" stroke-width="1.1" stroke-linejoin="round"><title>Mecklenburg-Vorpommern - full: point cloud, terrain, plots, houses</title></path>
  <path d="M368.0 174.1L370.0 174.0L370.7 176.3L373.3 175.5L375.3 177.7L378.0 178.3L377.0 180.7L377.6 181.6L384.7 184.2L386.8 183.2L391.2 184.3L391.7 182.9L392.0 186.1L395.5 184.5L397.1 186.1L398.4 189.8L396.2 192.3L395.7 196.2L397.2 198.8L397.4 202.7L395.7 204.3L394.1 203.7L394.4 207.6L392.8 211.3L395.0 213.9L396.6 213.6L397.3 211.8L398.4 212.2L399.1 214.6L401.2 214.4L401.3 217.3L400.0 219.7L400.6 223.0L399.7 224.1L400.9 225.7L398.7 229.5L397.7 233.4L400.3 234.8L397.9 236.3L396.4 239.4L399.3 244.6L401.2 245.5L403.3 249.0L406.8 251.3L409.3 250.1L410.0 251.8L412.0 252.5L412.3 253.9L416.0 254.1L418.5 251.7L423.5 254.4L423.8 255.4L427.1 255.2L427.5 257.8L429.3 258.4L430.7 257.5L432.7 257.7L434.1 260.3L437.0 260.5L436.1 262.0L436.7 262.8L438.8 263.0L440.6 261.9L442.1 262.8L442.3 263.6L440.8 264.2L443.1 269.4L442.0 271.5L443.9 274.8L442.2 277.2L436.0 281.1L435.6 279.3L434.6 278.5L433.0 278.8L432.9 279.9L430.5 280.4L428.2 279.5L428.1 278.1L427.0 277.5L423.7 280.2L419.5 279.1L418.3 281.6L415.7 283.1L414.2 281.9L412.4 283.5L409.6 283.9L407.6 283.1L404.9 285.0L402.3 285.0L400.3 287.0L398.1 287.1L395.2 289.3L396.0 291.9L393.3 295.1L393.5 297.1L394.8 296.9L395.1 297.9L394.3 298.8L395.2 305.0L393.1 305.8L394.3 310.6L395.1 310.7L395.3 319.7L397.6 320.6L396.7 321.4L397.1 322.7L399.4 323.1L398.0 327.9L399.8 327.7L400.1 328.4L397.6 332.6L397.5 334.4L396.3 335.6L394.7 332.6L393.8 334.0L390.3 332.6L386.7 333.3L384.8 329.6L381.1 327.0L379.8 326.3L376.3 327.2L373.7 326.3L371.2 324.7L370.8 323.0L369.5 322.1L364.6 321.6L363.5 322.8L360.6 322.8L359.6 322.0L359.3 320.0L360.7 317.6L358.7 314.5L355.9 314.4L354.7 313.5L355.6 311.7L356.5 312.3L357.4 311.6L360.1 307.6L357.6 305.3L357.8 304.1L356.5 303.5L356.3 301.6L353.0 300.3L352.6 298.7L350.3 299.5L344.3 299.4L339.9 297.3L336.5 298.2L337.3 297.3L335.8 297.4L335.5 293.2L331.0 285.5L331.7 283.7L332.1 284.5L333.6 284.2L333.1 282.7L331.7 283.1L330.0 281.5L325.2 280.1L321.9 280.5L320.6 276.4L316.3 269.7L316.2 264.6L319.7 261.2L319.5 259.8L317.9 258.8L317.9 257.5L319.8 256.0L318.4 256.0L315.4 252.4L319.0 251.6L320.3 249.2L335.1 248.2L335.4 246.0L334.0 244.6L338.6 242.2L339.8 239.3L337.8 238.9L337.5 237.2L341.0 234.8L337.4 230.3L338.6 228.5L336.0 226.0L339.5 225.4L340.5 223.5L333.6 216.7L334.2 214.8L337.3 213.9L333.7 208.4L335.7 204.0L333.0 205.1L328.4 196.8L326.9 197.0L324.8 191.5L325.4 186.9L333.9 186.1L337.0 181.5L341.7 181.4L341.7 182.7L346.6 182.4L352.1 184.2L359.8 179.4L361.6 179.2L360.9 177.8L361.9 174.1L364.4 173.6L367.5 171.3L368.2 171.7L367.4 173.3L368.0 174.1Z" fill="#a5d6a7" stroke="#2e7d32" stroke-width="1.1" stroke-linejoin="round"><title>Sachsen-Anhalt - full: point cloud, terrain, plots, houses. Priced route: LVermGeo sells the statewide 3D-Messdaten point cloud (LAS 1.2 or LAZ, 4-8 pts/m2, reflown on a 6-year cycle) at 190 EUR je Datensatz, auf Antrag; DGM and DOM are derived from it and sold separately. What is free is two sample areas and a UI that caps a DGM1 selection at 5 tiles.</title></path>
  <path d="M263.7 281.8L267.3 282.0L269.5 281.0L270.1 283.2L272.5 285.3L271.8 286.4L269.7 285.4L270.6 287.7L269.6 288.0L268.8 290.0L267.6 290.2L269.2 293.3L270.3 298.2L267.3 299.4L266.5 300.8L266.0 303.0L266.7 304.3L274.7 307.7L276.5 306.8L276.7 304.4L275.0 305.1L273.4 302.3L278.6 298.7L280.0 299.4L280.1 300.9L281.3 301.8L280.6 298.4L283.3 297.9L284.3 299.8L284.4 304.2L286.5 308.5L290.5 309.0L291.2 313.0L295.9 314.2L299.1 316.2L297.8 319.0L297.7 322.0L296.2 318.8L293.8 319.9L296.3 322.5L295.1 323.9L294.8 326.2L298.4 328.7L298.0 330.1L295.0 331.3L289.6 329.9L289.0 332.0L290.9 335.1L288.5 335.8L286.5 335.1L285.4 336.5L287.3 335.9L290.7 340.0L289.1 341.2L288.9 342.6L289.8 342.3L289.0 343.9L286.7 343.9L285.5 344.8L285.5 348.4L284.2 349.0L285.0 351.2L282.0 356.7L282.0 359.3L286.0 359.7L286.4 358.8L285.3 357.2L287.9 356.1L290.3 356.3L291.1 357.5L291.9 360.5L290.7 360.0L289.7 361.1L290.7 365.6L288.8 372.4L286.0 375.3L282.2 377.6L279.3 377.2L277.9 375.7L276.0 375.8L274.8 381.1L275.4 384.7L273.3 387.0L271.5 387.7L269.4 391.5L263.3 390.0L264.0 401.5L259.0 402.2L257.2 398.7L250.0 397.4L248.0 398.3L246.8 401.0L244.8 399.0L243.7 399.0L239.8 400.2L238.8 401.7L237.8 405.2L240.5 406.0L239.9 410.7L241.3 419.3L240.5 419.3L240.8 421.2L242.2 422.0L243.3 425.2L245.3 424.8L245.5 425.8L244.1 427.7L246.3 429.0L245.1 431.8L243.3 432.9L243.9 436.8L242.1 438.9L244.0 441.9L243.5 444.7L245.1 446.6L244.1 447.2L243.8 445.9L242.3 445.8L240.6 448.1L238.2 447.1L236.9 447.6L235.5 450.3L236.5 451.5L231.9 456.0L230.3 456.1L229.2 454.9L230.9 453.1L230.4 450.2L231.7 449.2L232.2 450.6L232.9 450.5L234.0 449.1L233.9 447.7L231.2 448.0L224.3 445.2L223.4 442.2L223.9 438.3L219.0 439.3L220.3 444.6L217.4 446.5L213.2 441.3L210.7 441.4L208.9 438.4L207.5 432.8L211.3 430.7L213.4 427.4L210.4 426.5L208.5 422.6L208.8 420.1L206.9 418.5L207.4 415.4L206.7 412.6L202.8 407.5L201.5 406.5L198.6 406.2L188.5 410.6L184.5 411.1L178.9 403.6L182.1 402.2L181.8 401.1L182.8 398.9L186.4 400.7L186.5 397.8L184.6 396.2L184.3 394.7L187.9 391.7L189.2 391.1L191.1 391.9L192.4 391.1L192.9 390.6L191.0 388.8L191.7 387.7L193.5 387.5L193.8 388.5L195.0 388.6L195.9 387.2L195.2 383.7L194.0 383.0L192.8 379.7L191.1 377.6L188.4 376.9L190.0 372.7L188.9 371.0L189.6 368.1L192.0 365.7L193.4 366.8L195.7 367.1L197.4 362.6L195.3 357.5L198.1 351.5L196.2 347.3L203.3 340.0L204.2 340.1L205.0 341.6L207.6 341.6L208.8 340.5L212.0 336.0L212.5 333.5L216.3 329.3L215.7 325.7L214.6 324.8L215.8 323.3L222.6 323.1L225.1 322.1L223.9 320.2L227.1 316.9L225.8 310.7L225.3 309.4L223.9 309.1L219.0 311.5L217.2 309.1L219.5 305.5L224.6 301.5L229.3 300.3L231.8 301.3L233.5 300.1L235.9 300.4L236.4 297.2L233.6 293.2L239.8 290.4L240.8 291.6L243.5 292.1L242.7 294.3L243.3 296.0L246.6 296.2L248.0 294.4L249.4 294.9L249.9 292.6L254.2 289.4L256.9 284.7L255.4 282.8L259.7 281.6L260.4 280.0L263.3 279.7L263.7 281.8Z" fill="#a5d6a7" stroke="#2e7d32" stroke-width="1.1" stroke-linejoin="round"><title>Hessen - full: point cloud, terrain, plots, houses. houses: free gds.hessen.de account, Downloadcenter Shape, annual — no endpoint</title></path>
  <path d="M182.4 340.3L184.3 340.6L185.9 342.9L188.3 342.8L188.4 348.4L191.9 352.1L191.9 354.4L194.8 353.9L196.1 355.3L195.3 357.5L197.4 362.6L195.7 367.1L193.4 366.8L192.0 365.7L189.6 368.1L188.9 371.0L190.0 372.7L188.4 376.9L191.1 377.6L192.8 379.7L194.0 383.0L195.2 383.7L195.9 387.2L195.0 388.6L193.8 388.5L193.5 387.5L191.7 387.7L191.0 388.8L192.9 390.6L191.6 391.8L189.2 391.1L185.4 393.2L184.3 395.8L186.5 397.8L186.4 400.7L182.8 398.9L181.8 401.1L182.1 402.2L178.9 403.6L178.9 404.5L182.8 407.9L183.4 410.4L184.5 411.1L188.5 410.6L198.6 406.2L201.8 406.6L206.5 412.2L207.4 415.4L206.9 418.5L208.8 420.1L208.5 422.6L210.4 426.5L213.4 427.4L211.5 430.6L208.0 432.2L207.4 433.7L210.7 441.4L210.3 443.9L212.7 450.2L211.6 451.8L214.8 453.0L214.3 458.8L212.1 461.6L213.9 464.1L209.1 468.7L208.8 469.7L209.8 469.8L208.0 473.9L207.5 479.4L205.3 482.7L204.0 487.3L201.3 489.6L200.8 488.8L194.4 487.8L186.6 482.5L186.1 483.6L184.5 483.2L183.4 484.4L179.9 481.8L178.1 483.4L172.0 482.7L171.9 481.2L168.6 480.7L167.0 479.4L165.3 476.4L165.2 473.8L162.7 472.6L158.8 473.5L158.8 474.6L155.9 470.9L155.2 468.5L159.8 464.0L160.7 458.2L159.0 458.6L155.2 456.6L155.3 455.1L153.4 453.3L153.0 452.1L155.9 449.9L154.7 449.1L153.7 441.8L151.5 442.8L149.4 441.2L149.5 440.3L145.3 440.1L143.8 437.7L142.4 437.0L140.3 438.5L140.6 437.4L138.2 437.3L133.2 440.9L131.1 441.2L128.6 443.4L123.0 444.7L121.8 446.0L119.6 444.7L117.3 445.7L115.1 444.5L110.6 443.9L109.6 442.2L112.6 438.6L113.6 435.8L113.0 434.9L116.5 431.4L117.3 426.9L116.8 423.8L115.3 422.8L113.1 423.6L104.8 418.1L103.2 415.9L102.9 412.8L100.3 411.7L97.8 403.8L99.6 397.8L99.1 395.2L101.4 394.7L100.2 391.7L100.6 390.6L106.1 386.8L107.0 383.9L108.3 383.6L109.8 385.0L110.8 383.8L112.9 383.7L110.9 378.9L112.2 378.5L114.0 379.8L114.2 382.7L115.7 382.5L117.9 380.0L121.6 378.6L123.2 382.0L124.7 379.8L126.1 381.8L131.3 380.6L129.7 378.2L130.4 376.0L128.4 372.4L129.8 371.0L131.2 370.5L131.8 372.1L134.1 373.5L136.1 372.3L136.4 369.7L135.3 367.8L137.4 365.2L139.7 365.5L143.7 361.5L145.1 363.1L146.5 361.6L148.2 362.0L151.4 358.2L151.4 360.1L156.9 358.9L158.6 358.1L159.3 352.8L162.4 353.4L167.9 350.6L169.6 351.3L170.4 349.1L173.4 348.8L174.4 347.2L173.4 344.8L177.5 342.8L177.7 337.1L179.5 335.4L182.6 336.7L181.5 339.3L182.4 340.3Z" fill="#ffcc80" stroke="#e65100" stroke-width="1.1" stroke-linejoin="round"><title>Rheinland-Pfalz - partial: point cloud, terrain, houses (missing: plots)</title></path>
  <path d="M429.9 280.3L432.9 279.9L433.0 278.8L434.6 278.5L435.6 279.3L436.0 281.1L437.2 280.2L438.9 283.1L440.4 282.7L442.4 283.9L441.8 286.2L444.9 289.9L444.0 297.7L445.4 299.9L448.8 299.6L448.7 298.7L450.8 297.0L454.9 296.1L460.2 299.4L461.3 301.9L462.6 300.7L463.6 300.8L463.9 301.9L468.5 301.6L472.8 302.6L474.9 301.9L475.6 300.7L478.1 301.5L481.0 300.2L483.7 301.1L490.4 288.3L497.0 289.2L499.5 290.6L502.7 288.4L505.6 288.4L506.0 287.3L510.3 287.0L511.7 285.5L513.0 286.1L513.6 287.8L516.8 287.7L519.1 285.2L518.5 287.0L519.7 289.7L526.4 292.9L528.9 293.1L531.0 295.8L531.5 304.1L534.3 307.8L534.5 309.6L532.5 321.3L527.1 335.9L523.8 339.8L522.8 344.7L521.1 344.8L514.1 341.9L515.7 338.1L515.6 336.1L512.2 337.4L511.4 337.1L513.0 331.9L511.3 330.1L508.2 329.0L508.6 327.4L507.8 327.4L507.7 328.9L505.9 328.0L503.7 329.3L498.5 326.5L496.4 331.7L499.3 334.6L503.1 335.8L502.6 338.6L498.6 339.8L496.9 338.9L495.2 340.1L494.6 341.8L488.7 344.1L487.5 345.4L484.9 345.7L483.4 344.9L480.7 347.2L479.0 346.9L478.6 350.9L476.6 352.1L472.7 351.4L468.2 352.5L467.2 351.8L464.1 353.4L462.0 353.1L460.5 353.8L461.4 356.0L460.4 358.9L457.5 361.8L455.1 360.8L453.0 358.4L453.3 359.9L450.7 361.5L450.6 363.5L449.1 364.1L448.5 362.5L447.0 362.6L444.4 369.6L436.3 369.2L435.3 374.5L433.8 376.3L431.9 377.1L425.9 373.1L421.7 375.3L419.9 377.6L418.1 376.9L411.0 378.1L409.8 380.7L405.4 383.8L403.7 387.0L401.7 392.6L402.3 395.4L400.2 395.2L399.2 393.5L399.9 391.5L397.6 389.7L398.1 388.9L395.6 387.6L395.7 384.8L394.9 383.8L390.7 384.0L390.3 382.9L384.6 381.4L385.0 379.5L384.3 377.9L382.0 375.7L382.3 375.1L380.4 374.3L383.0 373.0L384.1 371.0L382.5 368.5L380.3 368.5L379.6 366.4L382.1 364.9L382.1 363.1L385.2 361.2L384.8 360.3L386.3 359.2L387.6 362.5L386.6 364.6L387.5 365.7L389.6 365.5L390.0 363.7L391.6 364.6L393.6 364.0L393.5 363.2L391.3 362.9L393.1 359.7L393.9 359.6L394.5 361.0L398.7 359.7L401.3 357.0L401.6 355.6L399.3 355.3L398.2 353.0L399.2 351.8L396.9 350.8L397.7 348.9L398.8 349.5L400.0 347.7L398.2 347.3L398.1 345.0L399.5 345.7L402.8 344.6L402.9 343.4L404.7 342.5L406.4 343.3L409.5 339.1L413.0 338.1L417.1 338.3L417.8 337.1L415.6 331.1L414.2 331.7L412.7 331.0L412.2 328.9L411.0 328.7L410.6 329.5L410.4 326.8L408.5 325.5L408.2 324.2L404.2 324.7L402.1 322.7L399.7 323.6L396.7 322.2L397.6 320.6L395.3 319.7L395.1 310.7L394.3 310.6L393.1 305.8L395.2 305.0L395.4 303.1L394.3 298.8L395.1 297.9L394.8 296.9L393.5 297.1L393.3 295.1L396.0 291.9L395.2 289.3L398.1 287.1L400.3 287.0L402.3 285.0L404.9 285.0L407.6 283.1L409.6 283.9L412.4 283.5L414.2 281.9L415.7 283.1L418.3 281.6L419.5 279.1L423.7 280.2L427.0 277.5L428.1 278.1L428.2 279.5L429.9 280.3Z" fill="#a5d6a7" stroke="#2e7d32" stroke-width="1.1" stroke-linejoin="round"><title>Sachsen - full: point cloud, terrain, plots, houses</title></path>
  <path d="M215.5 51.4L217.2 51.4L218.0 52.9L216.8 53.1L215.0 51.8L215.5 51.4ZM221.6 46.6L218.6 47.1L216.8 48.3L215.8 47.6L221.4 45.6L222.3 45.9L221.6 46.6ZM208.8 47.5L209.3 48.7L207.5 48.8L204.1 44.5L207.6 40.8L206.5 42.8L208.8 47.5ZM222.3 58.1L220.1 58.2L218.6 55.2L224.4 53.3L224.1 56.3L222.3 58.1ZM217.6 43.5L213.4 43.4L209.6 41.9L209.8 39.3L212.8 37.8L217.8 37.9L219.2 40.4L217.6 43.5ZM349.2 59.7L352.1 65.2L346.1 63.7L345.0 64.3L346.0 64.6L345.4 65.2L342.7 65.1L341.5 64.6L341.8 62.6L341.0 61.6L337.9 61.9L339.1 63.1L337.1 61.7L337.6 58.1L340.1 54.7L348.1 57.3L349.2 59.7ZM211.8 14.5L212.7 14.9L211.9 15.2L209.3 15.0L211.5 17.2L208.6 18.8L207.2 21.0L208.0 26.1L210.8 28.0L219.4 27.2L221.1 26.4L221.0 25.4L223.2 25.4L225.6 26.8L230.4 25.8L236.4 26.1L241.2 28.4L245.5 28.3L248.9 29.5L250.6 30.2L251.2 33.3L255.7 33.8L257.7 31.1L259.0 30.8L260.4 33.8L267.7 28.1L268.9 28.1L267.8 30.1L268.5 31.7L277.8 34.3L280.5 37.6L281.9 37.8L283.3 34.3L284.6 35.0L286.6 37.1L287.4 40.5L289.7 42.9L289.2 53.5L286.1 57.3L281.3 59.6L280.2 59.4L280.1 60.2L281.4 61.5L293.6 58.7L295.8 59.6L297.4 61.0L296.2 62.8L297.3 65.1L294.9 68.7L295.6 70.1L294.8 71.8L296.2 70.9L298.5 64.8L303.5 62.6L317.1 68.1L322.3 72.7L326.7 72.1L333.5 66.7L336.3 66.8L336.4 67.6L338.1 67.8L340.5 67.1L342.0 65.6L343.2 66.1L342.9 67.5L340.2 69.6L341.4 81.1L334.7 85.5L330.9 89.7L327.1 90.0L324.7 93.1L326.4 96.7L330.6 97.3L332.5 102.5L335.2 103.5L332.5 104.5L330.3 103.3L327.1 106.2L325.7 106.5L324.5 108.1L325.8 112.5L325.6 116.1L328.3 119.1L333.1 120.0L334.1 121.2L334.5 124.0L333.4 125.5L333.3 129.1L332.4 130.1L330.2 130.5L328.2 129.7L328.6 132.3L327.5 134.4L321.8 139.1L318.8 139.2L318.1 144.4L317.1 146.4L312.5 145.5L306.4 141.6L303.9 141.4L303.0 140.8L303.8 139.5L302.8 140.1L299.3 136.0L295.9 133.9L295.3 129.6L297.4 129.0L297.4 127.2L298.7 125.2L294.8 121.6L297.3 117.5L295.8 117.1L294.0 118.4L291.8 118.4L291.3 121.6L287.8 121.5L287.1 124.0L283.1 123.8L282.8 125.3L279.6 128.9L276.3 125.6L274.6 131.1L273.4 131.0L265.9 126.5L264.0 120.9L260.1 117.4L254.6 108.2L249.1 105.9L240.0 106.0L239.8 104.7L237.2 104.8L234.8 102.4L230.7 94.7L229.9 94.6L233.0 93.0L236.8 93.8L238.2 91.9L235.3 86.3L231.7 86.6L230.4 85.5L229.4 82.8L231.0 78.6L231.1 74.7L230.3 73.9L225.0 74.0L222.1 75.8L219.2 74.1L218.3 72.4L219.5 69.0L220.3 68.7L221.1 70.2L223.9 68.7L223.8 67.4L222.3 67.6L221.2 66.6L221.6 65.9L230.1 64.2L231.8 64.8L233.5 64.4L236.7 61.2L238.8 60.4L239.4 57.7L238.1 55.6L236.2 56.5L235.0 60.1L233.1 60.8L229.4 60.1L229.2 57.9L232.6 55.1L232.4 52.7L233.7 49.7L230.8 46.0L226.8 43.6L226.3 40.6L223.8 40.1L224.5 38.9L223.9 36.5L219.6 31.2L219.2 27.7L214.9 27.9L210.2 30.5L206.5 28.0L204.4 30.9L204.6 38.7L203.5 37.8L203.9 28.1L205.1 23.7L209.2 14.5L211.8 14.5Z" fill="#e57373" stroke="#7f0000" stroke-width="1.1" stroke-linejoin="round"><title>Schleswig-Holstein - nolas: terrain, plots, houses (missing: point cloud)</title></path>
  <path d="M330.2 281.7L333.7 283.7L333.4 284.5L331.6 283.8L331.0 285.5L335.5 293.2L335.8 297.4L337.3 297.3L336.5 298.2L339.9 297.3L344.3 299.4L350.3 299.5L352.6 298.7L353.0 300.3L356.3 301.6L356.5 303.5L357.8 304.1L357.6 305.3L360.1 307.6L357.4 311.6L356.5 312.3L355.6 311.7L354.7 313.5L355.9 314.4L358.7 314.5L360.7 317.6L359.3 320.0L359.6 322.0L360.6 322.8L363.5 322.8L364.6 321.6L369.5 322.1L370.8 323.0L371.2 324.7L373.7 326.3L376.3 327.2L379.8 326.3L381.1 327.0L384.8 329.6L386.7 333.3L390.3 332.6L393.8 334.0L394.7 332.6L396.3 335.6L400.0 329.3L399.8 327.7L398.0 327.9L398.5 325.6L399.7 323.6L402.1 322.7L404.2 324.7L408.2 324.2L408.5 325.5L410.4 326.8L410.6 329.5L411.0 328.7L412.2 328.9L412.7 331.0L414.2 331.7L415.6 331.1L417.8 337.1L417.1 338.3L413.0 338.1L409.5 339.1L406.4 343.3L404.7 342.5L402.9 343.4L402.8 344.6L399.5 345.7L398.1 345.0L398.2 347.3L400.0 347.7L398.8 349.5L397.7 348.9L396.9 350.8L399.2 351.8L398.2 353.0L398.7 354.6L401.6 355.6L401.3 357.0L398.7 359.7L395.0 361.0L393.1 359.7L391.3 362.9L393.5 363.2L393.6 364.0L391.6 364.6L389.7 363.8L389.6 365.5L387.5 365.7L386.6 364.6L387.6 362.5L386.3 359.2L384.8 360.3L385.2 361.2L382.1 363.1L382.5 364.4L379.6 366.4L380.3 368.5L382.5 368.5L384.1 371.1L383.0 373.0L380.6 373.8L380.9 374.8L382.2 375.4L379.3 377.6L377.1 378.4L375.8 376.2L375.0 376.3L367.4 378.7L366.0 377.5L364.9 377.6L364.2 379.0L362.3 379.2L360.5 375.3L357.4 374.3L357.4 370.3L358.4 369.9L357.8 368.8L353.8 368.3L352.6 370.6L348.8 372.0L350.7 380.7L349.8 381.2L349.3 387.9L346.5 386.0L346.0 387.8L344.0 386.6L343.4 384.5L344.6 383.1L342.4 380.2L339.0 382.0L338.6 380.7L337.2 380.4L336.0 381.4L333.8 378.2L326.4 378.8L324.9 380.9L322.9 380.5L322.9 383.8L329.3 387.6L329.6 389.1L328.4 390.3L323.7 389.2L323.0 392.9L320.3 391.1L317.9 391.4L316.8 387.7L317.3 382.8L315.6 382.5L315.0 381.2L313.0 381.5L310.0 377.5L307.2 378.1L307.1 375.4L304.9 372.9L304.1 370.3L299.8 368.8L297.9 365.6L295.3 365.8L294.9 366.5L293.1 364.9L289.9 368.5L290.7 365.6L289.7 361.1L290.7 360.0L291.9 360.5L290.3 356.3L285.5 356.9L286.0 359.7L282.0 359.3L282.0 356.7L285.0 351.2L284.2 349.0L285.5 348.4L285.5 344.8L286.7 343.9L289.0 343.9L289.8 342.3L288.9 342.6L289.1 341.2L290.7 340.0L287.3 335.9L285.8 336.8L285.6 335.7L290.9 335.1L289.0 332.0L289.6 329.9L295.0 331.3L298.0 330.1L298.0 328.0L294.8 326.2L295.1 323.9L296.3 322.5L293.8 319.9L296.2 318.8L297.7 322.0L297.8 319.0L299.3 316.7L296.4 314.4L291.2 313.0L290.5 309.0L286.5 308.5L284.2 301.8L290.0 297.4L295.3 297.2L297.8 292.8L299.5 293.5L302.6 292.1L305.8 288.5L306.8 285.0L309.7 284.8L313.3 287.6L315.4 287.3L317.2 285.9L319.8 287.0L320.4 285.7L319.1 285.2L318.9 283.8L319.3 282.2L321.0 281.0L325.2 280.1L330.2 281.7Z" fill="#a5d6a7" stroke="#2e7d32" stroke-width="1.1" stroke-linejoin="round"><title>Thüringen - full: point cloud, terrain, plots, houses</title></path>
  <path d="M144.3 438.3L145.3 440.1L149.5 440.3L149.4 441.2L151.5 442.8L153.7 441.8L154.7 449.1L155.9 449.9L153.0 452.1L153.4 453.3L155.3 455.1L155.2 456.6L159.0 458.6L160.7 458.2L159.8 464.0L155.2 468.5L158.7 475.7L156.5 476.1L155.3 478.0L152.9 476.9L148.8 477.5L146.1 476.1L145.9 474.8L145.0 475.2L144.2 478.1L143.4 478.0L141.6 472.2L140.0 470.8L139.3 471.3L136.8 469.9L133.5 470.9L134.2 472.8L132.6 475.0L130.3 473.8L128.2 474.1L126.9 472.3L127.8 470.9L127.3 469.7L125.8 469.7L124.8 465.1L122.2 463.4L119.7 459.8L119.6 459.2L120.9 459.6L121.5 458.4L120.8 456.9L118.5 455.6L119.3 454.2L113.0 449.8L111.5 450.7L110.0 450.3L109.6 445.5L110.6 443.9L115.1 444.5L117.3 445.7L119.6 444.7L121.8 446.0L123.0 444.7L128.6 443.4L131.1 441.2L133.2 440.9L138.2 437.3L140.6 437.4L140.3 438.5L142.4 437.0L144.3 438.3Z" fill="#a5d6a7" stroke="#2e7d32" stroke-width="1.1" stroke-linejoin="round"><title>Saarland - full: point cloud, terrain, plots, houses</title></path>
  <path d="M464.7 210.3L467.0 211.6L464.7 215.9L465.3 216.3L466.5 215.3L472.0 218.6L468.4 222.7L469.1 223.6L466.6 226.0L466.2 223.3L463.8 222.0L458.3 221.8L457.5 219.9L455.3 220.7L455.4 223.3L453.7 223.2L451.5 220.6L450.0 221.5L449.3 220.5L446.9 221.1L446.8 219.9L445.7 219.8L442.4 222.0L439.1 220.6L440.7 218.5L440.5 215.4L442.9 212.9L440.5 212.4L441.1 209.4L441.9 209.5L442.0 206.5L442.8 206.0L445.4 206.9L444.6 205.4L445.6 203.7L447.7 203.7L448.5 201.7L449.6 201.9L449.8 203.7L451.8 204.1L454.2 202.1L455.9 203.0L457.4 201.4L457.3 200.4L458.1 200.7L460.3 202.5L459.1 205.4L459.6 206.5L462.0 207.0L463.3 208.2L463.5 209.8L464.7 210.3Z" fill="#a5d6a7" stroke="#2e7d32" stroke-width="1.1" stroke-linejoin="round"><title>Berlin - full: point cloud, terrain, plots, houses</title></path>
  <path d="M297.2 118.2L294.8 121.6L298.7 125.2L297.4 127.2L297.4 129.0L295.3 129.6L295.8 133.5L299.3 136.0L302.8 140.1L303.8 139.5L303.0 140.8L299.1 143.8L295.9 143.4L290.5 138.3L290.1 139.9L286.6 142.4L283.8 141.5L283.1 139.0L281.1 141.1L276.3 134.9L276.8 131.3L274.6 131.1L276.1 125.9L279.6 128.9L282.8 125.3L283.1 123.8L287.1 124.0L287.8 121.5L291.3 121.6L291.8 118.4L294.0 118.4L295.8 117.1L297.3 117.5L297.2 118.2Z" fill="#e57373" stroke="#7f0000" stroke-width="1.1" stroke-linejoin="round"><title>Hamburg - nolas: terrain, plots, houses (missing: point cloud)</title></path>
  <path d="M217.9 127.8L219.0 128.3L221.8 127.6L220.1 129.7L221.8 134.7L219.8 136.7L217.8 136.4L214.0 137.6L214.9 135.8L217.3 134.8L217.7 132.1L215.3 127.4L217.9 127.8ZM215.9 157.7L219.3 158.0L221.9 160.1L225.6 160.4L227.5 162.0L230.5 162.0L232.4 164.3L234.8 164.3L236.0 162.8L236.8 163.1L238.1 164.8L236.5 165.4L237.6 171.6L234.8 173.8L232.5 171.9L232.1 173.1L230.2 173.0L227.8 170.6L226.9 171.6L225.1 171.6L224.7 168.7L222.6 167.2L220.4 161.7L215.9 159.8L214.0 157.7L213.5 156.9L215.3 156.8L215.9 157.7Z" fill="#ef9a9a" stroke="#b71c1c" stroke-width="1.1" stroke-linejoin="round"><title>Bremen - none: plots, houses (missing: point cloud, terrain)</title></path>
  <text x="278.6" y="86.3" fill="#7f0000">SH</text>
  <line x1="289.0" y1="132.2" x2="237.0" y2="112.2" stroke="#7f0000" stroke-width="0.8"/>
  <text x="237.0" y="115.7" fill="#7f0000">HH</text>
  <text x="246.9" y="196.2" fill="#2e7d32">NI€</text>
  <line x1="228.2" y1="166.0" x2="174.2" y2="158.0" stroke="#b71c1c" stroke-width="0.8"/>
  <text x="174.2" y="161.5" fill="#b71c1c">HB</text>
  <text x="168.5" y="296.8" fill="#2e7d32">NW</text>
  <text x="240.4" y="365.3" fill="#2e7d32">HE*</text>
  <text x="163.0" y="419.1" fill="#e65100">RP</text>
  <text x="241.2" y="526.0" fill="#2e7d32">BW€</text>
  <text x="357.3" y="494.5" fill="#e65100">BY</text>
  <line x1="138.6" y1="457.0" x2="92.6" y2="463.0" stroke="#2e7d32" stroke-width="0.8"/>
  <text x="92.6" y="466.5" fill="#2e7d32">SL</text>
  <line x1="454.4" y1="213.5" x2="536.4" y2="193.5" stroke="#2e7d32" stroke-width="0.8"/>
  <text x="536.4" y="197.0" fill="#2e7d32">BE</text>
  <text x="474.2" y="301.2" fill="#2e7d32">BB</text>
  <text x="409.0" y="122.1" fill="#2e7d32">MV</text>
  <text x="451.8" y="330.2" fill="#2e7d32">SN</text>
  <text x="371.1" y="255.1" fill="#2e7d32">ST€</text>
  <text x="338.2" y="341.8" fill="#2e7d32">TH</text>
  <text x="14" y="652" class="h">Point cloud + terrain + plots + house structures</text>
  <rect x="14" y="657" width="15" height="12" rx="2" fill="#a5d6a7" stroke="#2e7d32" stroke-width="1.1"/>
  <text x="36" y="666" class="l">all four datasets (11)</text>
  <rect x="14" y="677" width="15" height="12" rx="2" fill="#ffcc80" stroke="#e65100" stroke-width="1.1"/>
  <text x="36" y="686" class="l">missing one of the four (2)</text>
  <rect x="14" y="697" width="15" height="12" rx="2" fill="#ef9a9a" stroke="#b71c1c" stroke-width="1.1"/>
  <text x="36" y="706" class="l">no bulk LiDAR route — cannot obtain the state (1)</text>
  <rect x="14" y="717" width="15" height="12" rx="2" fill="#e57373" stroke="#7f0000" stroke-width="1.1"/>
  <text x="36" y="726" class="l">no point cloud, free or paid — terrain only (2)</text>
  <text x="14" y="748" class="f">Labels are state IDs — ISO 3166-2 without the DE- prefix.</text>
  <text x="14" y="761" class="f">* obtainable in bulk, but offline — no endpoint to script.</text>
  <text x="14" y="774" class="f">€ obtainable, but priced — no free bulk route.</text>
</svg>
